<svg width="19" height="24" viewBox="0 0 19 24" fill="none" xmlns="http://www.w3.org/2000/svg">
<path d="M6.00844 8.65638C5.76848 8.603 5.56407 8.58012 5.38632 8.51911C4.68421 8.29033 4.24873 7.6421 4.36426 7.03963C4.49758 6.36852 5.13747 5.84231 5.91068 5.83468C8.10587 5.81943 10.3011 5.81943 12.4963 5.83468C13.2961 5.84231 13.9449 6.3914 14.0427 7.10063C14.1227 7.73361 13.5894 8.38947 12.8429 8.56487C12.7007 8.59538 12.5585 8.61825 12.3896 8.64876C12.3896 9.33512 12.434 10.0367 12.3807 10.7231C12.3185 11.5162 12.5674 12.1873 13.0028 12.8813C14.7181 15.5657 16.3801 18.2731 18.0509 20.9727C18.6464 21.9336 18.4331 22.9403 17.5177 23.5657C17.0555 23.8783 16.5223 24.0003 15.9357 24.0003C11.4387 24.0003 6.93273 24.0003 2.43569 24.0003C2.26683 24.0003 2.09797 24.0003 1.938 23.9698C0.320487 23.7182 -0.479381 22.3073 0.302712 21.0414C1.13813 19.6687 2.00021 18.3112 2.8534 16.9461C3.85768 15.3293 4.87085 13.7126 5.86624 12.0882C5.94623 11.9509 5.99955 11.7831 5.99955 11.6306C6.00844 10.6316 6.00844 9.64017 6.00844 8.65638ZM11.9452 12.8432C9.99889 13.4228 8.03477 13.7202 6.02621 13.8193C5.91068 13.827 5.76848 13.949 5.70626 14.0481C4.1954 16.4656 2.7112 18.8984 1.16479 21.3083C0.569335 22.2463 1.28033 23.2072 2.47124 23.1996C6.9505 23.1691 11.4298 23.192 15.909 23.1843C17.2066 23.1843 17.8287 22.2997 17.2155 21.3159C16.2023 19.6915 15.1891 18.0671 14.1849 16.4351C13.4383 15.2454 12.7007 14.0558 11.9452 12.8432ZM11.4475 8.61825C11.2787 8.61825 11.1454 8.61825 11.0209 8.61825C10.4877 8.61825 9.95445 8.62588 9.42121 8.61063C9.13681 8.603 8.96795 8.4581 8.95906 8.21406C8.95017 8.00053 9.1457 7.84038 9.4301 7.8175C9.52786 7.80987 9.62562 7.8175 9.73227 7.8175C10.6121 7.8175 11.4831 7.82513 12.3629 7.8175C12.8073 7.80987 13.1362 7.53533 13.1273 7.2074C13.1184 6.87947 12.8073 6.62781 12.3718 6.62781C10.2744 6.62781 8.18586 6.62781 6.08842 6.62781C5.63517 6.62781 5.30633 6.87947 5.30633 7.21503C5.29744 7.56583 5.62628 7.80987 6.1062 7.8175C6.40837 7.8175 6.70166 7.8175 7.00383 7.8175C7.43043 7.8175 7.64372 7.93952 7.6615 8.19881C7.67927 8.4581 7.47486 8.59537 7.04827 8.62588C7.03049 8.62588 7.01272 8.64113 6.96828 8.65638C6.96828 9.47239 6.94162 10.296 6.97717 11.1197C7.00383 11.7221 6.93273 12.2941 6.50613 12.7974C6.47058 12.8432 6.45281 12.8966 6.40837 12.9881C8.18586 12.8966 9.85669 12.6068 11.4831 12.1416C11.4475 10.9595 11.4475 9.81557 11.4475 8.61825Z" fill="#48494B"/>
<path d="M11.1007 3.72969C9.89202 3.70681 8.93218 2.8603 8.94995 1.83839C8.96772 0.793597 9.972 -0.0224091 11.1985 0.000469531C12.3716 0.015722 13.3314 0.885111 13.3137 1.89177C13.287 2.92894 12.3005 3.75257 11.1007 3.72969ZM11.1007 2.92894C11.7939 2.94419 12.3627 2.48662 12.3805 1.89177C12.3983 1.31218 11.8472 0.808849 11.1629 0.801223C10.4786 0.785971 9.9009 1.25117 9.88313 1.83839C9.85647 2.42561 10.4075 2.91369 11.1007 2.92894Z" fill="#48494B"/>
<path d="M8.07042 4.11859C8.06153 4.76682 7.46607 5.27015 6.70175 5.26252C5.95521 5.26252 5.34198 4.72106 5.35975 4.08808C5.37753 3.43985 5.98187 2.93652 6.72841 2.93652C7.48385 2.95178 8.07042 3.47036 8.07042 4.11859ZM6.72841 3.7449C6.47957 3.7449 6.28404 3.91268 6.30182 4.11096C6.31959 4.3245 6.46179 4.46177 6.72841 4.46177C6.98615 4.45414 7.13724 4.3245 7.13724 4.10334C7.12835 3.86692 6.95949 3.76778 6.72841 3.7449Z" fill="#48494B"/>
<path d="M6.81731 20.5384C6.80842 21.2095 6.19519 21.7281 5.42198 21.7205C4.64878 21.7128 4.04443 21.179 4.05332 20.5155C4.06221 19.852 4.68433 19.3411 5.46642 19.3487C6.23074 19.3563 6.8262 19.8902 6.81731 20.5384ZM5.43087 21.0417C5.7597 21.0417 6.01744 20.8282 6.01744 20.5384C6.01744 20.2562 5.76859 20.0351 5.43976 20.0351C5.10204 20.0351 4.85319 20.2486 4.85319 20.5308C4.85319 20.813 5.10204 21.0341 5.43087 21.0417Z" fill="#48494B"/>
<path d="M9.65246 15.6874C9.66134 15.1231 10.1946 14.6731 10.8523 14.6808C11.501 14.6808 12.0343 15.1536 12.0343 15.7027C12.0254 16.2746 11.4744 16.7398 10.8167 16.7246C10.159 16.717 9.64357 16.2518 9.65246 15.6874ZM10.4434 15.5883C10.4523 15.8933 10.5856 16.0306 10.8256 16.0382C11.0567 16.0459 11.2078 15.9238 11.2166 15.7256C11.2255 15.5196 11.0833 15.3595 10.8434 15.3824C10.6923 15.3976 10.5501 15.5349 10.4434 15.5883Z" fill="#48494B"/>
<path d="M14.1314 21.4686C14.1314 22.0024 13.6515 22.4066 13.0294 22.399C12.425 22.3914 11.9629 21.9872 11.9629 21.4686C11.9629 20.9424 12.4517 20.5306 13.0649 20.5382C13.6693 20.5458 14.1403 20.95 14.1314 21.4686ZM13.4649 21.4533C13.2693 21.3389 13.1449 21.2246 13.056 21.2398C12.9405 21.2627 12.8161 21.3847 12.7894 21.4838C12.7716 21.5449 12.9583 21.6898 13.0472 21.6898C13.1627 21.6898 13.2693 21.5754 13.4649 21.4533Z" fill="#48494B"/>
<path d="M7.59929 17.022C7.5904 17.2813 7.34155 17.4872 7.03938 17.4796C6.73721 17.472 6.50613 17.2585 6.52391 16.9915C6.5328 16.7399 6.76387 16.5568 7.06604 16.5568C7.3771 16.5492 7.60818 16.7551 7.59929 17.022Z" fill="#48494B"/>
<path d="M10.8346 19.5013C10.8257 19.7224 10.5946 19.9207 10.3369 19.9131C10.0702 19.9055 9.85693 19.7148 9.85693 19.486C9.86582 19.2572 10.088 19.0742 10.3546 19.0742C10.6124 19.0818 10.8434 19.2801 10.8346 19.5013Z" fill="#48494B"/>
</svg>
