<svg width="24" height="24" viewBox="0 0 24 24" fill="none" xmlns="http://www.w3.org/2000/svg">
<path d="M21.1931 2.16282C21.2067 1.85599 21.1876 1.54263 21.2448 1.24885C21.3866 0.517684 21.9562 0.00847623 22.583 0.00194793C23.218 -0.00458038 23.7795 0.504627 23.9485 1.2358C24.1202 1.97676 23.8531 2.75036 23.2944 3.14206C22.7574 3.51744 22.0652 3.41952 21.621 2.89072C21.5392 2.7928 21.4711 2.77648 21.362 2.81238C20.4272 3.12901 19.4761 3.15512 18.5249 2.98212C17.789 2.84829 17.0641 2.63938 16.3337 2.46638C15.5133 2.27053 14.6848 2.13997 13.8454 2.15955C13.7636 2.16282 13.6818 2.16935 13.6001 2.17587C13.5674 2.17914 13.5374 2.18567 13.502 2.20852C13.5429 2.22157 13.581 2.23789 13.6219 2.24768C16.3964 3.00823 18.5412 5.6065 19.1408 8.9392C19.1626 9.05997 19.2008 9.10893 19.2989 9.13178C20.0293 9.30805 20.5117 10.098 20.43 10.9695C20.3482 11.841 19.7241 12.4841 18.9828 12.4612C18.345 12.4416 17.7754 11.8606 17.6555 11.1066C17.5328 10.3265 17.8653 9.55612 18.4622 9.24276C18.5113 9.21665 18.5631 9.1938 18.6421 9.15137C18.544 8.75967 18.4704 8.36144 18.3477 7.98606C17.4674 5.28008 15.8431 3.58272 13.4911 2.87767C13.4093 2.85155 13.3466 2.83523 13.303 2.97233C13.0823 3.63169 12.5753 4.0397 12.003 4.0397C11.4252 4.0397 10.9183 3.62516 10.6894 2.9658C10.6785 2.92989 10.6648 2.89725 10.6403 2.8287C10.3269 2.93969 10.008 3.02455 9.70548 3.16491C7.42705 4.2127 5.99348 6.1614 5.39934 8.99795C5.37482 9.11873 5.39117 9.17748 5.49473 9.22644C6.14883 9.54633 6.49496 10.3722 6.32598 11.1849C6.15973 11.9847 5.52744 12.533 4.85426 12.458C4.15111 12.3829 3.6033 11.717 3.56242 10.8944C3.52154 10.0457 3.98758 9.30478 4.68256 9.13831C4.7943 9.1122 4.83519 9.05997 4.85971 8.92941C5.49473 5.54774 7.57422 3.04087 10.4005 2.24442C10.4304 2.23463 10.4604 2.22484 10.4931 2.18567C10.3705 2.17587 10.2506 2.16282 10.1279 2.15955C9.15768 2.13997 8.20651 2.30644 7.26625 2.56757C6.48406 2.78627 5.69914 2.99518 4.89242 3.05393C4.11295 3.10942 3.33894 3.06046 2.584 2.7928C2.50769 2.76669 2.46136 2.78301 2.40685 2.84829C1.95716 3.38687 1.31396 3.51091 0.76343 3.1747C0.2238 2.85155 -0.0759944 2.14323 0.0166694 1.41533C0.106608 0.710269 0.575377 0.152099 1.18314 0.024797C2.12613 -0.174316 2.96556 0.857156 2.78568 1.98982C2.7775 2.04857 2.7666 2.10733 2.75025 2.20525C3.06095 2.26727 3.36347 2.34887 3.66599 2.38478C4.71799 2.51535 5.7482 2.33582 6.77022 2.03878C7.82768 1.73195 8.89331 1.50346 9.9862 1.50999C10.2097 1.50999 10.4304 1.52957 10.6539 1.54916C10.7248 1.55568 10.7657 1.53936 10.8093 1.46429C11.4089 0.403439 12.5781 0.409967 13.194 1.47408C13.2158 1.51325 13.273 1.54916 13.3112 1.54589C14.4831 1.41206 15.6305 1.62423 16.7725 1.90821C17.4375 2.07468 18.1052 2.24768 18.7784 2.36193C19.5197 2.48923 20.2637 2.45333 20.9996 2.25421C21.0786 2.23136 21.1549 2.20525 21.2339 2.17914C21.2203 2.17587 21.2067 2.16935 21.1931 2.16282ZM4.10478 10.7867C4.10205 11.3514 4.48906 11.8182 4.95783 11.8214C5.4266 11.8247 5.81906 11.3612 5.82178 10.7998C5.82451 10.2318 5.44568 9.76829 4.97146 9.76176C4.49178 9.75524 4.1075 10.209 4.10478 10.7867ZM19.0318 9.76176C18.5549 9.76176 18.1733 10.2187 18.1706 10.7834C18.1679 11.3547 18.5631 11.8247 19.0373 11.8182C19.5088 11.8117 19.893 11.3481 19.8903 10.7834C19.8876 10.2122 19.5088 9.7585 19.0318 9.76176ZM11.9975 1.33372C11.5233 1.33699 11.1363 1.79397 11.139 2.35867C11.139 2.92336 11.5261 3.3934 11.9921 3.3934C12.4718 3.3934 12.8561 2.93316 12.8588 2.35867C12.8588 1.79397 12.469 1.33372 11.9975 1.33372ZM21.7327 1.68299C21.7327 2.24768 22.1143 2.71119 22.5885 2.71446C23.0627 2.71772 23.4552 2.25095 23.4552 1.67646C23.4552 1.11829 23.0627 0.654778 22.5912 0.654778C22.117 0.658043 21.7327 1.11502 21.7327 1.68299ZM2.2624 1.68951C2.2624 1.12155 1.88357 0.658043 1.40935 0.658043C0.932405 0.654778 0.537222 1.12482 0.539947 1.69278C0.545398 2.25421 0.92968 2.71119 1.4039 2.71446C1.8754 2.71772 2.2624 2.25421 2.2624 1.68951Z" fill="#48494B"/>
<path d="M14.0498 16.4952C14.1125 16.5115 14.1425 16.518 14.1725 16.5245C14.6194 16.629 14.9274 17.0631 14.9247 17.6082C14.9247 17.7714 14.9547 17.8628 15.08 17.9575C15.3907 18.186 15.5215 18.5418 15.4779 18.9759C15.4343 19.397 15.2327 19.681 14.9029 19.8311C14.8538 19.854 14.7993 19.8736 14.7421 19.8964C14.7421 19.9584 14.7421 20.0172 14.7421 20.0759C14.7421 21.2445 14.7421 22.4163 14.7421 23.5849C14.7421 23.8917 14.6549 23.9995 14.4014 23.9995C12.7989 23.9995 11.1936 23.9995 9.59106 23.9995C9.35668 23.9995 9.25857 23.8852 9.25857 23.6045C9.25857 22.4196 9.25584 21.2315 9.25857 20.0466C9.25857 19.9356 9.23949 19.8801 9.13865 19.8409C8.78162 19.7038 8.56359 19.4068 8.51998 18.9596C8.47637 18.5059 8.629 18.1534 8.95877 17.9183C9.03236 17.8661 9.07051 17.8237 9.07051 17.7094C9.06779 17.024 9.32943 16.6518 9.89904 16.5082C9.90721 16.505 9.91266 16.4984 9.94537 16.4723C9.86633 16.2504 9.79274 16.0186 9.69736 15.7999C9.35123 15.0067 8.90699 14.2886 8.42732 13.6064C8.26652 13.3779 8.25834 13.2865 8.38098 13.0384C9.50113 10.7796 10.624 8.52411 11.7441 6.26531C11.8804 5.99112 12.1175 5.99765 12.2592 6.2849C13.205 8.18463 14.1452 10.0811 15.0882 11.9776C15.2572 12.3171 15.4289 12.6598 15.5979 12.9993C15.7423 13.293 15.7369 13.3648 15.5597 13.6227C15.0582 14.3441 14.5922 15.0916 14.2433 15.937C14.1725 16.11 14.118 16.2961 14.0498 16.4952ZM12.3056 7.65911C12.2947 7.66237 12.281 7.66563 12.2701 7.6689C12.2701 7.72112 12.2701 7.77661 12.2701 7.82884C12.2701 8.68731 12.2729 9.54905 12.2674 10.4075C12.2674 10.525 12.2974 10.5707 12.3928 10.6066C13.0523 10.8547 13.4502 11.6348 13.3303 12.4215C13.2077 13.2212 12.6408 13.7892 11.9758 13.7729C11.3135 13.7598 10.7548 13.1723 10.6567 12.3856C10.5586 11.5989 10.9538 10.8482 11.6024 10.6066C11.7033 10.5707 11.7251 10.5152 11.7251 10.4043C11.7223 9.53926 11.7251 8.67426 11.7251 7.80926C11.7251 7.76029 11.7196 7.71133 11.7169 7.62646C11.6842 7.68195 11.6733 7.69827 11.6624 7.7146C10.7603 9.53273 9.85543 11.3509 8.95059 13.1657C8.90971 13.2473 8.92061 13.2963 8.96422 13.3648C9.20133 13.737 9.44389 14.1025 9.66738 14.4877C10.0135 15.0883 10.3296 15.7118 10.485 16.4299C10.4932 16.4658 10.564 16.5082 10.6049 16.5082C11.537 16.5115 12.4664 16.5115 13.3985 16.5115C13.4748 16.5115 13.502 16.4821 13.5293 16.394C13.611 16.1067 13.6901 15.8162 13.8018 15.5453C14.1234 14.7652 14.5513 14.0699 15.0092 13.4007C15.0719 13.3094 15.0855 13.2441 15.031 13.1364C14.3196 11.7132 13.611 10.2867 12.9052 8.86358C12.7062 8.45882 12.5045 8.05733 12.3056 7.65911ZM14.1888 22.7232C13.949 22.7232 13.7228 22.7232 13.4966 22.7232C13.1559 22.7232 12.8152 22.7264 12.4745 22.7232C12.2456 22.7199 12.1148 22.4555 12.2238 22.2335C12.2865 22.1062 12.3846 22.0703 12.5018 22.0703C13.0142 22.0736 13.5293 22.0703 14.0417 22.0703C14.0907 22.0703 14.137 22.0671 14.1834 22.0638C14.1834 21.3326 14.1834 20.6243 14.1834 19.9062C12.7198 19.9062 11.2645 19.9062 9.80637 19.9062C9.80637 20.1118 9.80637 20.3077 9.80637 20.5231C9.8636 20.5231 9.90994 20.5231 9.95899 20.5231C10.455 20.5231 10.9483 20.5231 11.4443 20.5231C11.5016 20.5231 11.5643 20.5231 11.6188 20.5427C11.736 20.5851 11.7986 20.6896 11.8041 20.8332C11.8095 20.9768 11.7523 21.0911 11.6433 21.1433C11.5861 21.1694 11.5179 21.1727 11.4552 21.1727C10.951 21.176 10.4468 21.1727 9.94264 21.1727C9.89904 21.1727 9.85543 21.1727 9.8091 21.1727C9.8091 21.9071 9.8091 22.622 9.8091 23.3336C11.2754 23.3336 12.7307 23.3336 14.1861 23.3336C14.1888 23.1279 14.1888 22.9386 14.1888 22.7232ZM11.9976 19.2403C12.8288 19.2403 13.6601 19.2403 14.4913 19.2403C14.5459 19.2403 14.6004 19.2436 14.6549 19.2338C14.8211 19.2077 14.9383 19.0379 14.9383 18.8388C14.9383 18.6462 14.8266 18.4798 14.6658 18.4471C14.6085 18.4341 14.5486 18.4341 14.4886 18.4341C12.8261 18.4341 11.1636 18.4341 9.50113 18.4341C9.44117 18.4341 9.38121 18.4341 9.32398 18.4471C9.16318 18.4798 9.05143 18.6462 9.05143 18.8388C9.05143 19.0379 9.17135 19.2077 9.3376 19.2338C9.38666 19.2436 9.43844 19.2403 9.4875 19.2403C10.3269 19.2403 11.1636 19.2403 11.9976 19.2403ZM14.3714 17.7747C14.4096 17.3863 14.2706 17.1643 13.9871 17.1643C12.6626 17.1611 11.338 17.1643 10.0135 17.1643C9.72188 17.1643 9.56654 17.4189 9.63467 17.7747C11.2072 17.7747 12.7852 17.7747 14.3714 17.7747ZM12.8043 12.1571C12.807 11.6185 12.4446 11.1844 11.9921 11.1844C11.5534 11.1844 11.1909 11.6218 11.1909 12.1538C11.1909 12.6826 11.5561 13.12 11.9949 13.12C12.4391 13.12 12.8043 12.6859 12.8043 12.1571Z" fill="#48494B"/>
<path d="M4.10499 10.7867C4.10772 10.209 4.492 9.75526 4.9744 9.76179C5.44589 9.76832 5.82745 10.2318 5.82473 10.7998C5.822 11.3612 5.42954 11.8247 4.96077 11.8215C4.48928 11.8182 4.10227 11.3514 4.10499 10.7867Z" fill="white"/>
<path d="M19.0317 9.76172C19.5086 9.76172 19.8874 10.2122 19.8902 10.7834C19.8929 11.3481 19.5086 11.8149 19.0371 11.8181C18.5629 11.8247 18.1677 11.3514 18.1704 10.7834C18.1731 10.2154 18.5574 9.76172 19.0317 9.76172Z" fill="white"/>
<path d="M11.9975 1.334C12.469 1.33074 12.8587 1.79425 12.856 2.35895C12.856 2.93344 12.469 3.39695 11.9893 3.39368C11.5232 3.39368 11.1362 2.92364 11.1362 2.35895C11.1362 1.79751 11.5232 1.33727 11.9975 1.334Z" fill="white"/>
<path d="M21.7329 1.68251C21.7329 1.11454 22.1172 0.654297 22.5914 0.654297C23.0629 0.654297 23.4554 1.11781 23.4554 1.67598C23.4554 2.2472 23.0629 2.71724 22.5887 2.71398C22.1145 2.71071 21.7329 2.2472 21.7329 1.68251Z" fill="white"/>
<path d="M2.26223 1.68903C2.26223 2.25373 1.87249 2.71724 1.40372 2.71398C0.929502 2.71071 0.54522 2.25373 0.542495 1.68903C0.539769 1.12433 0.932227 0.654297 1.4119 0.654297C1.88339 0.657561 2.26495 1.12107 2.26223 1.68903Z" fill="white"/>
<path d="M12.3055 7.65993C12.5044 8.06142 12.7034 8.45965 12.9023 8.86114C13.611 10.2876 14.3168 11.7107 15.0282 13.1339C15.0827 13.2449 15.069 13.3069 15.0064 13.3983C14.5485 14.0675 14.1179 14.7627 13.799 15.5429C13.6873 15.8138 13.6082 16.1043 13.5265 16.3915C13.5019 16.4797 13.472 16.5123 13.3956 16.509C12.4636 16.5058 11.5342 16.509 10.6021 16.5058C10.5612 16.5058 10.4904 16.4633 10.4822 16.4274C10.3268 15.7093 10.0134 15.0859 9.66457 14.4853C9.44381 14.1001 9.20125 13.7345 8.96141 13.3624C8.91508 13.2906 8.90691 13.2449 8.94779 13.1633C9.85262 11.3484 10.7547 9.53029 11.6596 7.71216C11.6677 7.69257 11.6814 7.67951 11.7141 7.62402C11.7195 7.70889 11.7222 7.75785 11.7222 7.80682C11.7222 8.67182 11.7195 9.53682 11.7222 10.4018C11.7222 10.5161 11.7004 10.5683 11.5996 10.6042C10.951 10.8457 10.5558 11.5965 10.6539 12.3832C10.752 13.1698 11.3107 13.7541 11.973 13.7704C12.638 13.7835 13.2076 13.2155 13.3275 12.4191C13.4474 11.6324 13.0495 10.8555 12.39 10.6042C12.2946 10.5683 12.2646 10.5226 12.2646 10.4051C12.2701 9.54661 12.2673 8.68487 12.2673 7.8264C12.2673 7.77417 12.2673 7.71868 12.2673 7.66646C12.2837 7.66646 12.2946 7.66319 12.3055 7.65993Z" fill="white"/>
<path d="M14.1888 22.7239C14.1888 22.9426 14.1888 23.1319 14.1888 23.3375C12.7307 23.3375 11.2753 23.3375 9.81181 23.3375C9.81181 22.6259 9.81181 21.9111 9.81181 21.1766C9.85814 21.1766 9.90175 21.1766 9.94535 21.1766C10.4496 21.1766 10.9538 21.1766 11.458 21.1766C11.5206 21.1766 11.5888 21.1766 11.646 21.1473C11.7577 21.0918 11.8123 20.9808 11.8068 20.8372C11.8014 20.6936 11.7387 20.5891 11.6215 20.5467C11.567 20.5271 11.5043 20.5271 11.4471 20.5271C10.951 20.5271 10.4577 20.5271 9.9617 20.5271C9.91265 20.5271 9.86359 20.5271 9.80908 20.5271C9.80908 20.3116 9.80908 20.1191 9.80908 19.9102C11.2644 19.9102 12.7198 19.9102 14.1861 19.9102C14.1861 20.625 14.1861 21.3366 14.1861 22.0678C14.1398 22.071 14.0907 22.0743 14.0444 22.0743C13.532 22.0743 13.0169 22.0776 12.5045 22.0743C12.3873 22.0743 12.2892 22.1102 12.2265 22.2375C12.1175 22.4595 12.2483 22.7239 12.4773 22.7271C12.8179 22.7336 13.1586 22.7271 13.4993 22.7271C13.7228 22.7239 13.949 22.7239 14.1888 22.7239Z" fill="white"/>
<path d="M11.9976 19.2408C11.1609 19.2408 10.327 19.2408 9.49026 19.2408C9.44121 19.2408 9.38942 19.2441 9.34037 19.2343C9.17412 19.2082 9.0542 19.0384 9.0542 18.8393C9.0542 18.6467 9.16594 18.4803 9.32674 18.4476C9.38397 18.4346 9.44393 18.4346 9.50389 18.4346C11.1664 18.4346 12.8289 18.4346 14.4914 18.4346C14.5513 18.4346 14.6113 18.4346 14.6685 18.4476C14.8293 18.4803 14.9411 18.6467 14.9411 18.8393C14.9411 19.0417 14.8239 19.2082 14.6576 19.2343C14.6031 19.2441 14.5486 19.2408 14.4941 19.2408C13.6601 19.2408 12.8289 19.2408 11.9976 19.2408Z" fill="white"/>
<path d="M14.3715 17.775C12.7853 17.775 11.2101 17.775 9.63206 17.775C9.5612 17.4192 9.71927 17.1678 10.0109 17.1646C11.3354 17.1613 12.66 17.1613 13.9845 17.1646C14.268 17.1646 14.4097 17.3865 14.3715 17.775Z" fill="white"/>
<path d="M12.8044 12.1573C12.8016 12.6861 12.4364 13.1202 11.9949 13.1202C11.5534 13.1202 11.1909 12.6828 11.1909 12.154C11.1909 11.622 11.5534 11.1846 11.9922 11.1846C12.4446 11.1846 12.8071 11.6154 12.8044 12.1573Z" fill="white"/>
</svg>
