<svg width="24" height="24" viewBox="0 0 24 24" fill="none" xmlns="http://www.w3.org/2000/svg">
<g clip-path="url(#clip0_1447_972)">
<path d="M8.46903 14.3137C8.49538 14.4665 8.50592 14.6246 8.55862 14.7669C8.71672 15.2043 9.15941 15.4415 9.61791 15.3571C10.0764 15.2728 10.3926 14.8776 10.3979 14.3822C10.3979 14.2768 10.361 14.1397 10.4137 14.0712C10.4717 14.0027 10.6087 14.0027 10.7141 13.9764C11.2358 13.8499 11.7207 13.6391 12.1212 13.2702C12.7431 12.6957 12.9539 11.9685 12.9275 11.1463C12.9012 10.2768 12.5428 9.57057 11.8261 9.08046C11.5046 8.85911 11.1515 8.67466 10.7931 8.5271C10.2872 8.31629 9.75493 8.16346 9.23846 7.96847C9.01185 7.88414 8.78523 7.77347 8.58497 7.63645C8.28984 7.43092 8.32147 7.04093 8.62713 6.85648C8.72199 6.79851 8.82739 6.75634 8.9328 6.73526C9.67061 6.5877 10.3346 6.73526 10.9091 7.23592C10.9829 7.29916 11.0566 7.36241 11.1357 7.42038C11.6364 7.7682 12.2846 7.63118 12.6008 7.10944C12.8379 6.71945 12.7905 6.22934 12.469 5.84462C12.0263 5.31234 11.4361 5.01721 10.7879 4.82749C10.6614 4.7906 10.4769 4.79587 10.4137 4.71682C10.3452 4.62723 10.3873 4.45331 10.3821 4.31629C10.3821 3.78401 9.96046 3.37822 9.43345 3.37822C8.91699 3.37822 8.50592 3.78928 8.49011 4.32156C8.48484 4.42169 8.48484 4.51656 8.49011 4.61669C8.49538 4.70628 8.45849 4.73263 8.37944 4.75371C8.14228 4.82222 7.89986 4.88546 7.67324 4.98559C5.90776 5.78665 5.88141 7.94739 6.76152 8.93289C7.1515 9.37031 7.62581 9.66544 8.15809 9.87097C8.6851 10.0765 9.22792 10.2451 9.75493 10.4507C9.99736 10.5455 10.2292 10.6668 10.4559 10.7985C10.6034 10.8828 10.7035 11.0251 10.7299 11.199C10.7879 11.5785 10.6192 11.8525 10.224 11.9579C9.50724 12.1529 8.81158 12.0949 8.18971 11.6575C7.95256 11.4889 7.74175 11.2781 7.52041 11.0884C7.18313 10.8038 6.73517 10.7511 6.35572 10.9619C5.97627 11.1674 5.76547 11.5943 5.81817 12.0212C5.85506 12.3058 6.00789 12.5324 6.18708 12.7379C6.7299 13.3756 7.43082 13.755 8.2266 13.9764C8.49011 14.0449 8.49011 14.0396 8.46903 14.3137ZM9.49143 16.506C7.35177 16.4849 5.55467 15.7419 4.13174 14.1872C2.70355 12.6272 2.09222 10.7722 2.28721 8.66939C2.64031 4.896 5.94992 2.05015 9.74439 2.26623C12.058 2.39798 13.9078 3.43092 15.2253 5.32815C16.5481 7.23065 16.8063 9.32815 16.1634 11.5679C16.4743 11.3361 16.7694 11.1253 17.0593 10.9039C17.0909 10.8776 17.1172 10.8249 17.1225 10.7827C17.1647 10.3716 17.2121 9.95529 17.2437 9.54422C17.249 9.48098 17.2279 9.4072 17.1963 9.34923C17.0435 9.03829 17.0224 8.72736 17.1436 8.40061C17.1647 8.34264 17.1699 8.27413 17.1594 8.21089C16.9117 6.60351 16.2319 5.20167 15.1304 4.01063C12.975 1.68652 9.59683 0.885462 6.65085 1.98691C3.01975 3.3466 0.932796 7.0462 1.63899 10.8565C2.25559 14.1714 5.03293 16.7801 8.38471 17.1911C8.59551 17.2175 8.80104 17.228 9.01712 17.2491C9.08563 16.9382 9.22792 16.7063 9.49143 16.506Z" fill="#48494B"/>
<path d="M23.7313 24.0004C19.6575 24.0004 15.5837 24.0004 11.5099 24.0004C11.2991 23.8897 11.2411 23.7158 11.2464 23.4839C11.257 22.9148 11.2464 22.3509 11.2517 21.7817C11.2517 21.3126 11.5679 21.0017 12.0369 20.9964C12.2267 20.9964 12.4216 20.9912 12.6114 20.9964C12.7273 21.0017 12.7537 20.9648 12.7537 20.8541C12.7484 19.9108 12.7484 18.9675 12.7537 18.0241C12.7537 17.5656 13.0699 17.2494 13.5284 17.2441C13.7339 17.2441 13.9342 17.2441 14.1397 17.2441C14.7089 17.2441 14.9987 17.534 14.9987 18.1032C14.9987 19.7685 14.9987 21.4339 14.9987 23.0992C14.9987 23.1466 15.004 23.1941 15.004 23.2362C15.257 23.2362 15.4994 23.2362 15.7471 23.2362C15.7471 23.1888 15.7471 23.1466 15.7471 23.1045C15.7471 21.808 15.7471 20.5116 15.7471 19.2099C15.7471 19.1466 15.7471 19.0781 15.7576 19.0149C15.8103 18.6407 16.116 18.3772 16.506 18.3719C16.7484 18.3667 16.9908 18.3719 17.2491 18.3719C17.2491 18.3087 17.2491 18.2613 17.2491 18.2138C17.2491 17.0281 17.2491 15.837 17.2491 14.6512C17.2491 14.198 17.5653 13.8818 18.0185 13.8765C18.2609 13.8713 18.5086 13.8765 18.751 13.8765C18.8143 13.8765 18.8722 13.8818 18.9302 13.8976C19.278 13.9819 19.4941 14.2771 19.4941 14.6618C19.4941 17.4707 19.4941 20.2744 19.4941 23.0834C19.4941 23.1361 19.4941 23.1888 19.4941 23.2362C19.7523 23.2362 19.9948 23.2362 20.2477 23.2362C20.2477 23.1783 20.2477 23.1361 20.2477 23.0939C20.2477 22.6196 20.2477 22.1453 20.2477 21.6763C20.2477 18.9622 20.2477 16.2481 20.2477 13.534C20.2477 13.0702 20.5639 12.7593 21.0224 12.754C21.2227 12.754 21.423 12.754 21.6232 12.754C21.6601 12.754 21.7023 12.7487 21.7444 12.7487C21.7444 12.675 21.7444 12.6223 21.7444 12.5643C21.7444 11.1993 21.7444 9.82911 21.7444 8.46416C21.7444 8.02674 22.0659 7.7 22.4981 7.69473C22.751 7.69473 23.004 7.68945 23.257 7.69473C23.5837 7.70527 23.8103 7.86864 23.9421 8.16376C23.9579 8.20592 23.979 8.24281 23.9948 8.28498C23.9948 13.4339 23.9948 18.588 23.9948 23.7369C23.9104 23.8212 23.8209 23.9108 23.7313 24.0004ZM23.2359 23.2415C23.2359 18.3034 23.2359 13.3812 23.2359 8.44835C22.9882 8.44835 22.751 8.44835 22.5033 8.44835C22.5033 13.3812 22.5033 18.3087 22.5033 23.2415C22.751 23.2415 22.9935 23.2415 23.2359 23.2415ZM21.7392 13.5024C21.5389 13.5024 21.3492 13.5024 21.1595 13.5024C20.9961 13.5024 20.9961 13.5024 20.9961 13.6605C20.9961 16.8067 20.9961 19.953 20.9961 23.0939C20.9961 23.1414 21.0014 23.1888 21.0014 23.2362C21.2543 23.2362 21.4967 23.2362 21.7339 23.2362C21.7392 19.9898 21.7392 16.7487 21.7392 13.5024ZM18.7405 23.2415C18.7405 20.3693 18.7405 17.5024 18.7405 14.6354C18.4875 14.6354 18.2504 14.6354 18.0079 14.6354C18.0079 17.5076 18.0079 20.3693 18.0079 23.2415C18.2556 23.2415 18.4928 23.2415 18.7405 23.2415ZM13.5073 23.2362C13.755 23.2362 13.9974 23.2362 14.2398 23.2362C14.2398 21.4866 14.2398 19.7474 14.2398 18.0083C13.9921 18.0083 13.7497 18.0083 13.5073 18.0083C13.5073 19.7527 13.5073 21.4866 13.5073 23.2362ZM16.506 19.1308C16.506 20.5063 16.506 21.8713 16.506 23.2362C16.7537 23.2362 16.9961 23.2362 17.2332 23.2362C17.2332 21.8607 17.2332 20.4958 17.2332 19.1308C16.9908 19.1308 16.7537 19.1308 16.506 19.1308ZM12.0053 21.7553C12.0053 22.2507 12.0053 22.7408 12.0053 23.2468C12.2214 23.2468 12.4269 23.2415 12.6325 23.2468C12.722 23.2468 12.7537 23.2257 12.7537 23.1308C12.7484 22.7092 12.7537 22.2823 12.7484 21.8607C12.7484 21.8238 12.7431 21.7922 12.7379 21.7553C12.4902 21.7553 12.253 21.7553 12.0053 21.7553Z" fill="#48494B"/>
<path d="M9.89196 0C10.1607 0.0316206 10.4242 0.057971 10.693 0.0948617C12.4743 0.347826 14.0553 1.05929 15.4256 2.22398C16.9592 3.52569 17.971 5.15942 18.4717 7.10935C18.4928 7.19895 18.4822 7.25165 18.4032 7.29908C18.2134 7.42029 18.0343 7.55204 17.8393 7.68379C17.7918 7.49407 17.7549 7.32016 17.7075 7.15152C16.9381 4.18445 14.5244 1.77075 11.5415 1.03294C8.81159 0.358366 6.29249 0.864295 4.06324 2.58762C2.16074 4.06324 1.06983 6.03426 0.801054 8.43215C0.374177 12.2899 2.54545 15.9104 6.14493 17.3702C7.06719 17.7444 8.02108 17.9447 9.01186 17.9868C9.10672 17.9921 9.16469 18.0237 9.21739 18.1028C9.35441 18.3083 9.50198 18.5086 9.66008 18.7352C9.59157 18.7404 9.53887 18.7457 9.49144 18.751C8.10013 18.7668 6.76153 18.5086 5.50198 17.913C2.65086 16.5481 0.874835 14.3241 0.189723 11.2358C0.100132 10.8406 0.0737813 10.4295 0.0210804 10.0237C0.0158103 9.98155 0.00527009 9.93412 0 9.89196C0 9.54941 0 9.20685 0 8.8643C0.00527009 8.82213 0.0158103 8.7747 0.0210804 8.73254C0.152833 6.93544 0.732543 5.29644 1.80764 3.84717C3.37813 1.73913 5.47036 0.484848 8.07905 0.0895916C8.33202 0.0527009 8.59025 0.0263505 8.84321 0C9.19104 0 9.54414 0 9.89196 0Z" fill="#48494B"/>
<path d="M24.0001 5.16454C23.9053 5.2594 23.8209 5.37534 23.7103 5.45439C22.0871 6.57692 20.4639 7.69945 18.8354 8.82198C18.8038 8.84306 18.7722 8.86941 18.73 8.90103C18.9039 9.12238 19.0726 9.34372 19.2412 9.55979C19.4151 9.78641 19.5943 10.0078 19.7682 10.2344C19.9316 10.4504 19.9053 10.6612 19.6839 10.8246C16.8012 12.9643 13.9132 15.0987 11.0304 17.233C10.9039 17.3226 10.7827 17.4175 10.6457 17.5176C10.7195 17.6283 10.7933 17.7284 10.867 17.8286C11.2096 18.3134 11.5522 18.793 11.8894 19.2778C12.0581 19.5203 12.0317 19.7153 11.7946 19.8892C9.94478 21.2278 8.09497 22.5717 6.24517 23.9103C6.19774 23.9419 6.15031 23.9682 6.09761 23.9998C6.03437 23.9998 5.96586 23.9998 5.90262 23.9998C5.79194 23.9419 5.69181 23.8786 5.64438 23.7522C5.58641 23.5835 5.64438 23.4201 5.81302 23.2937C6.47179 22.8141 7.13582 22.3345 7.79458 21.8602C8.86441 21.0855 9.93424 20.3108 11.0041 19.5308C11.0304 19.5097 11.0568 19.4939 11.0937 19.4623C10.9408 19.2462 10.7933 19.0354 10.6457 18.8246C10.3822 18.4504 10.1187 18.0815 9.85518 17.7074C9.68654 17.4702 9.71816 17.2699 9.95532 17.096C12.2056 15.4307 14.456 13.7653 16.701 12.1C17.423 11.5677 18.145 11.0354 18.867 10.4979C18.8987 10.4768 18.925 10.4504 18.9619 10.4188C18.7774 10.1764 18.593 9.93924 18.4085 9.70209C18.2452 9.49128 18.0818 9.28575 17.9184 9.07495C17.7445 8.84833 17.7814 8.63226 18.0133 8.46888C19.4257 7.49392 20.8328 6.52422 22.2452 5.54925C22.2873 5.5229 22.3295 5.49128 22.3611 5.43331C22.2926 5.43331 22.2294 5.43331 22.1609 5.43331C21.8973 5.43331 21.6391 5.43858 21.3756 5.43331C21.1543 5.42804 20.9962 5.26467 20.9962 5.05387C20.9962 4.84833 21.1543 4.68496 21.3756 4.68496C22.124 4.67969 22.867 4.68496 23.6154 4.68496C23.8051 4.68496 23.9053 4.8009 23.9948 4.94319C24.0001 5.02225 24.0001 5.09076 24.0001 5.16454Z" fill="#48494B"/>
<path d="M8.46888 14.3138C8.48996 14.0397 8.48996 14.045 8.23173 13.9712C7.43595 13.7499 6.73502 13.3704 6.1922 12.7327C6.01302 12.5219 5.86019 12.3006 5.8233 12.016C5.76533 11.5891 5.9814 11.1622 6.36085 10.9567C6.74029 10.7512 7.18825 10.7986 7.52554 11.0832C7.74688 11.2729 7.95768 11.4837 8.19484 11.6524C8.81671 12.0898 9.51236 12.1478 10.2291 11.9528C10.6244 11.8474 10.793 11.5733 10.735 11.1939C10.7087 11.0147 10.6085 10.8777 10.461 10.7933C10.2344 10.6616 10.0025 10.5404 9.76006 10.4455C9.23305 10.2452 8.69023 10.0766 8.16322 9.8658C7.63094 9.655 7.15136 9.35987 6.76664 8.92772C5.88654 7.94222 5.90762 5.78148 7.67837 4.98043C7.90498 4.88029 8.14741 4.81705 8.38456 4.74854C8.46361 4.72746 8.50577 4.70111 8.49523 4.61152C8.48469 4.51666 8.48996 4.41653 8.49523 4.31639C8.51104 3.78411 8.92211 3.37305 9.43858 3.37305C9.96559 3.37305 10.3819 3.78411 10.403 4.31639C10.4083 4.45342 10.3661 4.62733 10.4346 4.71692C10.4979 4.80124 10.6823 4.7907 10.8088 4.82759C11.457 5.01732 12.0473 5.31244 12.49 5.84472C12.8114 6.22944 12.8589 6.71956 12.6217 7.10954C12.3055 7.62601 11.652 7.7683 11.1566 7.42048C11.0776 7.36251 11.0038 7.29927 10.93 7.23602C10.3556 6.73537 9.69154 6.5878 8.95373 6.73537C8.84833 6.75645 8.74293 6.80388 8.64807 6.85658C8.3424 7.0463 8.31078 7.43102 8.60591 7.63655C8.80617 7.77357 9.03278 7.87898 9.2594 7.96857C9.77587 8.16356 10.3029 8.31639 10.8141 8.5272C11.1724 8.67476 11.5255 8.85921 11.847 9.08056C12.5637 9.57595 12.9221 10.2769 12.9485 11.1464C12.9748 11.9686 12.7587 12.6958 12.1421 13.2703C11.7416 13.6392 11.2568 13.8447 10.735 13.9765C10.6296 14.0028 10.4873 14.0028 10.4346 14.0713C10.3819 14.1346 10.4188 14.2716 10.4188 14.3823C10.4135 14.8777 10.0973 15.2729 9.63884 15.3572C9.18035 15.4416 8.73766 15.1991 8.57956 14.767C8.50577 14.6194 8.49523 14.4613 8.46888 14.3138Z" fill="#48494B"/>
<path d="M9.49138 16.5064C9.22788 16.7066 9.08558 16.9385 9.02234 17.2442C8.80627 17.2231 8.60073 17.2126 8.38993 17.1862C5.03815 16.7752 2.26081 14.1665 1.64421 10.8516C0.93275 7.04657 3.01971 3.34696 6.6508 1.98728C9.59678 0.880561 12.9749 1.68689 15.1304 4.011C16.2371 5.20204 16.9117 6.60388 17.1594 8.21126C17.1699 8.2745 17.1646 8.34301 17.1436 8.40098C17.0223 8.72773 17.0434 9.03866 17.1963 9.3496C17.2279 9.40757 17.249 9.48135 17.2437 9.54459C17.2068 9.96093 17.1646 10.372 17.1225 10.7831C17.1172 10.8252 17.0961 10.8832 17.0592 10.9043C16.7694 11.1256 16.4795 11.3364 16.1633 11.5683C16.8063 9.32852 16.548 7.23102 15.2252 5.32852C13.9077 3.43129 12.0526 2.39308 9.74434 2.2666C5.94988 2.05052 2.64026 4.89637 2.28716 8.66976C2.09217 10.7725 2.7035 12.6276 4.1317 14.1875C5.55462 15.7422 7.35172 16.4853 9.49138 16.5064Z" fill="#48494B"/>
</g>
<defs>
<clipPath id="clip0_1447_972">
<rect width="24" height="24" fill="white"/>
</clipPath>
</defs>
</svg>
