<svg width="24" height="24" viewBox="0 0 24 24" fill="none" xmlns="http://www.w3.org/2000/svg">
<g clip-path="url(#clip0_1447_988)">
<rect width="24" height="24" fill="white"/>
<path d="M12.7995 11.2005C12.7995 11.0955 12.7995 11.0185 12.7995 10.945C12.7995 7.60344 12.7995 4.26185 12.7995 0.920251C12.7995 0.304418 12.4951 0 11.8723 0C8.72314 0 5.57399 0 2.42484 0C1.06021 0 0 1.06021 0 2.43184C0 8.80012 0 15.1684 0 21.5332C0 22.9573 1.03922 24 2.45983 24C8.82811 24 15.1964 24 21.5612 24C22.9433 24 23.9965 22.9468 23.9965 21.5612C23.9965 18.405 23.9965 15.2524 23.9965 12.0962C23.9965 11.5119 23.6816 11.2005 23.1007 11.2005C19.7347 11.2005 16.3721 11.2005 13.006 11.2005C12.9465 11.2005 12.8835 11.2005 12.7995 11.2005ZM19.1923 9.58041C20.249 9.58041 21.3022 9.58041 22.3589 9.58041C23.2897 9.58041 23.986 8.88759 23.986 7.95684C23.986 5.85042 23.986 3.74749 23.986 1.64106C23.986 0.70331 23.2862 0.0104972 22.3484 0.0104972C20.249 0.0104972 18.1496 0.0104972 16.0502 0.0104972C15.1089 0.0104972 14.4161 0.706809 14.4196 1.64455C14.4196 3.74399 14.4231 5.84342 14.4196 7.94285C14.4196 8.89109 15.0949 9.57691 16.0432 9.57691C17.0929 9.58041 18.1426 9.58041 19.1923 9.58041Z" fill="#48494B"/>
<path d="M12.7995 11.2005C12.8835 11.2005 12.9465 11.2005 13.0095 11.2005C16.3756 11.2005 19.7382 11.2005 23.1042 11.2005C23.6851 11.2005 24 11.5154 24 12.0962C24 15.2524 24 18.405 24 21.5612C24 22.9468 22.9468 24 21.5647 24C15.1964 24 8.82811 24 2.46333 24C1.03922 24 0 22.9573 0 21.5332C0 15.1649 0 8.79662 0 2.43184C0 1.06021 1.06021 0 2.42484 0C5.57399 0 8.72314 0 11.8723 0C12.4916 0 12.7995 0.304418 12.7995 0.920251C12.7995 4.26185 12.7995 7.60344 12.7995 10.945C12.7995 11.0185 12.7995 11.0955 12.7995 11.2005ZM12.8065 22.3904C12.8765 22.3939 12.929 22.4009 12.9815 22.4009C15.8262 22.4009 18.6709 22.4009 21.5157 22.4009C22.079 22.4009 22.3974 22.0825 22.3974 21.5262C22.3974 18.6814 22.3974 15.8367 22.3974 12.992C22.3974 12.9325 22.3904 12.8695 22.3869 12.817C19.1783 12.817 15.9907 12.817 12.803 12.817C12.8065 16.0117 12.8065 19.1923 12.8065 22.3904ZM11.1935 12.81C7.98834 12.81 4.8042 12.81 1.60956 12.81C1.60607 12.873 1.59907 12.9255 1.59907 12.9745C1.59907 15.8297 1.59907 18.6884 1.59907 21.5437C1.59907 22.065 1.93148 22.3939 2.45284 22.3939C5.29757 22.3939 8.14229 22.3939 10.987 22.3939C11.0535 22.3939 11.12 22.3939 11.1935 22.3939C11.1935 19.1888 11.1935 16.0082 11.1935 12.81ZM11.1935 1.59907C11.1165 1.59907 11.0605 1.59907 11.001 1.59907C8.14929 1.59907 5.30106 1.59907 2.44934 1.59907C1.93148 1.59907 1.59907 1.93148 1.59907 2.45284C1.59907 5.30456 1.59907 8.15279 1.59907 11.0045C1.59907 11.064 1.60607 11.127 1.60607 11.183C4.8147 11.183 7.99883 11.183 11.19 11.183C11.1935 7.99184 11.1935 4.8077 11.1935 1.59907Z" fill="#48494B"/>
<path d="M19.1922 9.58008C18.1424 9.58008 17.0927 9.58008 16.043 9.58008C15.0948 9.58008 14.4159 8.89427 14.4194 7.94602C14.4229 5.84659 14.4194 3.74716 14.4194 1.64773C14.4194 0.706484 15.1123 0.0136719 16.05 0.0136719C18.1494 0.0136719 20.2489 0.0136719 22.3483 0.0136719C23.286 0.0136719 23.9859 0.706484 23.9859 1.64423C23.9894 3.75066 23.9859 5.85359 23.9859 7.96002C23.9859 8.88727 23.286 9.58358 22.3588 9.58358C21.3056 9.58008 20.2489 9.58008 19.1922 9.58008ZM19.1922 3.67718C19.1257 3.5932 19.0872 3.53372 19.0382 3.48473C18.6183 3.06135 18.2019 2.64146 17.7785 2.22157C17.5756 2.01863 17.3237 1.94165 17.0402 2.00113C16.7218 2.06762 16.5049 2.26006 16.4174 2.57498C16.3369 2.8759 16.3999 3.15232 16.6273 3.37976C17.0962 3.84863 17.5686 4.31751 18.0445 4.78988C17.999 4.83886 17.9675 4.87735 17.9325 4.91584C17.5091 5.34273 17.0857 5.76611 16.6588 6.1895C16.3019 6.5464 16.2949 7.05027 16.6378 7.38618C16.9598 7.70459 17.4636 7.68359 17.81 7.33719C18.0235 7.12375 18.2404 6.9103 18.4539 6.69336C18.6953 6.44493 18.9367 6.193 19.1782 5.93757C19.2446 6.00055 19.2796 6.03204 19.3146 6.06353C19.7345 6.48342 20.1509 6.90681 20.5778 7.32319C20.6758 7.41767 20.7947 7.50514 20.9207 7.55763C21.2741 7.70109 21.673 7.56463 21.8864 7.23921C22.0964 6.9243 22.0579 6.50441 21.785 6.22799C21.4665 5.90258 21.1411 5.58416 20.8192 5.26575C20.6653 5.11179 20.5113 4.95433 20.3608 4.80038C20.8437 4.31751 21.3091 3.85213 21.771 3.38326C21.9914 3.15932 22.0754 2.88639 21.9844 2.58198C21.8934 2.27056 21.687 2.07111 21.3686 2.00463C21.0711 1.94165 20.8157 2.03612 20.6058 2.24957C20.1439 2.71144 19.6855 3.17682 19.1922 3.67718Z" fill="white"/>
<path d="M12.8066 22.3904C12.8066 19.1888 12.8066 16.0081 12.8066 12.8135C15.9943 12.8135 19.1819 12.8135 22.3905 12.8135C22.394 12.866 22.401 12.9289 22.401 12.9884C22.401 15.8332 22.401 18.6779 22.401 21.5226C22.401 22.079 22.0826 22.3974 21.5193 22.3974C18.6746 22.3974 15.8298 22.3974 12.9851 22.3974C12.9291 22.4009 12.8766 22.3939 12.8066 22.3904ZM17.6038 16.8024C16.9495 16.8024 16.2987 16.8024 15.6444 16.8024C15.1615 16.8024 14.8011 17.1383 14.8011 17.5932C14.7976 18.0586 15.151 18.4015 15.6479 18.4015C16.946 18.405 18.2477 18.405 19.5458 18.4015C19.6543 18.4015 19.7698 18.3875 19.8712 18.3525C20.2351 18.23 20.4486 17.8556 20.3891 17.4812C20.3261 17.0858 20.0112 16.8094 19.5948 16.8059C18.9335 16.7954 18.2687 16.8024 17.6038 16.8024Z" fill="white"/>
<path d="M11.1935 12.8096C11.1935 16.0077 11.1935 19.1883 11.1935 22.397C11.1235 22.397 11.0536 22.397 10.9871 22.397C8.14235 22.397 5.29762 22.397 2.45289 22.397C1.93153 22.397 1.60262 22.0646 1.59912 21.5467C1.59912 18.6915 1.59912 15.8328 1.59912 12.9775C1.59912 12.925 1.60612 12.8761 1.60962 12.8131C4.80075 12.8096 7.98839 12.8096 11.1935 12.8096ZM6.40332 16.802C5.756 16.802 5.10867 16.802 4.46135 16.802C3.96098 16.802 3.60408 17.1274 3.59708 17.5893C3.59358 18.0651 3.94699 18.4011 4.45785 18.4011C5.7455 18.4011 7.03315 18.4011 8.3208 18.4011C8.83516 18.4011 9.19206 18.0721 9.19556 17.6033C9.19906 17.1344 8.83866 16.802 8.3243 16.802C7.68747 16.7985 7.04715 16.802 6.40332 16.802ZM6.43831 19.2058C6.32284 19.2058 6.24236 19.2023 6.16189 19.2058C5.756 19.2163 5.43758 19.5278 5.40259 19.9511C5.3676 20.3395 5.65102 20.7279 6.04642 20.7804C6.28085 20.8119 6.52229 20.8084 6.75672 20.7804C7.07164 20.7419 7.32007 20.483 7.37956 20.1751C7.44254 19.8427 7.34107 19.5697 7.07164 19.3598C6.87219 19.2023 6.64126 19.1918 6.43831 19.2058ZM6.42781 14.4051C6.31584 14.4051 6.23886 14.4016 6.16189 14.4051C5.7385 14.4191 5.40259 14.762 5.39559 15.1854C5.38859 15.5983 5.70351 15.9587 6.1164 15.9902C6.30885 16.0042 6.50129 16.0042 6.69374 15.9867C7.01216 15.9622 7.28158 15.7278 7.36906 15.4129C7.45653 15.1049 7.33757 14.762 7.08913 14.5661C6.87919 14.4016 6.64126 14.3911 6.42781 14.4051Z" fill="white"/>
<path d="M11.1934 1.59863C11.1934 4.80726 11.1934 7.9879 11.1934 11.186C8.00231 11.186 4.81817 11.186 1.60954 11.186C1.60604 11.1301 1.60254 11.0671 1.60254 11.0076C1.60254 8.15586 1.60254 5.30763 1.60254 2.4559C1.60254 1.93454 1.93495 1.60213 2.45281 1.60213C5.30454 1.60213 8.15277 1.60213 11.0045 1.60213C11.0605 1.59863 11.1165 1.59863 11.1934 1.59863ZM5.59846 7.19712C5.59846 7.28459 5.59846 7.34758 5.59846 7.41056C5.59846 7.85844 5.59496 8.30982 5.59846 8.75769C5.60196 9.24056 5.94136 9.59397 6.39624 9.59397C6.86161 9.59397 7.19402 9.24756 7.19752 8.76119C7.19752 8.31331 7.19752 7.86194 7.19752 7.41406C7.19752 7.34758 7.19752 7.2776 7.19752 7.21811C7.23251 7.20761 7.24301 7.20062 7.25351 7.20062C7.75387 7.19712 8.25774 7.19712 8.7581 7.19712C9.24097 7.19712 9.59437 6.86121 9.59437 6.40283C9.59787 5.94096 9.24797 5.60155 8.7651 5.59805C8.31022 5.59455 7.85535 5.59805 7.40047 5.59805C7.33749 5.59805 7.278 5.59805 7.19752 5.59805C7.19752 5.51407 7.19752 5.45109 7.19752 5.38811C7.19752 4.94023 7.19752 4.48885 7.19752 4.04097C7.19402 3.5511 6.85112 3.1942 6.38574 3.1977C5.94136 3.2012 5.60196 3.5581 5.59846 4.03397C5.59496 4.48885 5.59846 4.94373 5.59846 5.3986C5.59846 5.46159 5.59846 5.52107 5.59846 5.60155C5.51098 5.60155 5.448 5.60155 5.38501 5.60155C4.93014 5.60155 4.47526 5.60155 4.02038 5.60155C3.77195 5.60155 3.56201 5.68553 3.40105 5.87447C3.18411 6.12641 3.13512 6.42033 3.26809 6.72474C3.40455 7.03616 3.65648 7.20062 3.99939 7.20411C4.52425 7.20062 5.04561 7.19712 5.59846 7.19712Z" fill="white"/>
<path d="M19.1925 3.67762C19.6859 3.17725 20.1443 2.71188 20.6026 2.2465C20.8161 2.03306 21.068 1.93859 21.3654 2.00157C21.6838 2.06805 21.8938 2.271 21.9813 2.57891C22.0722 2.88683 21.9883 3.15626 21.7678 3.3802C21.3059 3.84907 20.8406 4.31445 20.3577 4.79731C20.5082 4.95127 20.6621 5.10873 20.8161 5.26269C21.138 5.5846 21.4634 5.90301 21.7818 6.22493C22.0547 6.50485 22.0932 6.92124 21.8833 7.23615C21.6698 7.56157 21.2745 7.69803 20.9175 7.55457C20.7916 7.50208 20.6726 7.41461 20.5746 7.32013C20.1478 6.90374 19.7314 6.48036 19.3115 6.06047C19.28 6.02898 19.245 5.99749 19.175 5.93451C18.9301 6.18994 18.6922 6.44187 18.4507 6.6903C18.2373 6.90724 18.0238 7.12069 17.8069 7.33413C17.4605 7.68053 16.9566 7.70153 16.6347 7.38311C16.2918 7.04371 16.2988 6.53984 16.6557 6.18644C17.0791 5.76305 17.506 5.33617 17.9294 4.91278C17.9644 4.87779 17.9993 4.8358 18.0413 4.78682C17.5655 4.31095 17.0931 3.84557 16.6242 3.3767C16.3968 3.14926 16.3338 2.87284 16.4143 2.57192C16.4982 2.2605 16.7187 2.06455 17.0371 1.99807C17.3205 1.93859 17.5725 2.01557 17.7754 2.21851C18.1988 2.6349 18.6152 3.05829 19.0351 3.48167C19.0875 3.53416 19.126 3.59364 19.1925 3.67762Z" fill="#48494B"/>
<path d="M17.604 16.8023C18.2688 16.8023 18.9336 16.7988 19.5984 16.8023C20.0113 16.8058 20.3297 17.0823 20.3927 17.4776C20.4522 17.852 20.2352 18.2264 19.8748 18.3489C19.7734 18.3839 19.6579 18.3979 19.5494 18.3979C18.2513 18.4014 16.9496 18.4014 15.6515 18.3979C15.1581 18.3979 14.8012 18.055 14.8047 17.5896C14.8082 17.1347 15.1651 16.7988 15.648 16.7988C16.2988 16.7988 16.9531 16.8023 17.604 16.8023Z" fill="#48494B"/>
<path d="M6.40335 16.8027C7.04368 16.8027 7.68401 16.8027 8.32783 16.8027C8.84219 16.8027 9.1991 17.1351 9.1991 17.604C9.1956 18.0729 8.83869 18.4018 8.32433 18.4018C7.03668 18.4018 5.74903 18.4018 4.46138 18.4018C3.95052 18.4018 3.59711 18.0659 3.60061 17.59C3.60411 17.1281 3.96101 16.8027 4.46488 16.8027C5.1122 16.8027 5.75953 16.8027 6.40335 16.8027Z" fill="#48494B"/>
<path d="M6.4381 19.2067C6.64105 19.1927 6.87199 19.2032 7.06793 19.3571C7.33736 19.5671 7.43883 19.84 7.37585 20.1724C7.31637 20.4803 7.06793 20.7392 6.75302 20.7777C6.51858 20.8057 6.27365 20.8092 6.04271 20.7777C5.65082 20.7252 5.36389 20.3404 5.39888 19.9485C5.43387 19.5286 5.75229 19.2172 6.15818 19.2032C6.24216 19.2032 6.32263 19.2067 6.4381 19.2067Z" fill="#48494B"/>
<path d="M6.42784 14.4058C6.63778 14.3918 6.87922 14.4023 7.08916 14.5668C7.3376 14.7627 7.45656 15.1056 7.36909 15.4135C7.28161 15.7284 7.01218 15.9629 6.69377 15.9874C6.50132 16.0014 6.30887 16.0049 6.11643 15.9909C5.70704 15.9594 5.38862 15.599 5.39562 15.1861C5.40262 14.7627 5.73853 14.4233 6.16191 14.4058C6.23889 14.4023 6.31587 14.4058 6.42784 14.4058Z" fill="#48494B"/>
<path d="M5.59828 7.19785C5.04543 7.19785 4.52407 7.20135 3.99921 7.19785C3.6598 7.19435 3.40437 7.02989 3.26791 6.71848C3.13494 6.41406 3.18393 6.12364 3.40087 5.86821C3.56183 5.67926 3.77527 5.59528 4.0202 5.59528C4.47508 5.59528 4.92996 5.59528 5.38483 5.59528C5.44782 5.59528 5.5108 5.59528 5.59828 5.59528C5.59828 5.5183 5.59828 5.45532 5.59828 5.39234C5.59828 4.93746 5.59478 4.48258 5.59828 4.02771C5.60178 3.55533 5.94118 3.19493 6.38556 3.19143C6.85094 3.18793 7.19734 3.54484 7.19734 4.0347C7.20084 4.48258 7.19734 4.93396 7.19734 5.38184C7.19734 5.44482 7.19734 5.5078 7.19734 5.59178C7.27432 5.59178 7.33731 5.59178 7.40029 5.59178C7.85517 5.59178 8.31004 5.58828 8.76492 5.59178C9.24779 5.59528 9.59769 5.93469 9.59419 6.39656C9.5907 6.85494 9.24079 7.19085 8.75792 7.19085C8.25756 7.19435 7.75369 7.19435 7.25333 7.19435C7.24283 7.19435 7.23233 7.20135 7.19734 7.21184C7.19734 7.27133 7.19734 7.33781 7.19734 7.40779C7.19734 7.85567 7.19734 8.30705 7.19734 8.75492C7.19734 9.24129 6.86143 9.5842 6.39606 9.5877C5.93769 9.5877 5.59828 9.23779 5.59828 8.75143C5.59478 8.30355 5.59828 7.85217 5.59828 7.40429C5.59828 7.3518 5.59828 7.28882 5.59828 7.19785Z" fill="#48494B"/>
</g>
<defs>
<clipPath id="clip0_1447_988">
<rect width="24" height="24" fill="white"/>
</clipPath>
</defs>
</svg>
