<svg width="24" height="24" viewBox="0 0 24 24" fill="none" xmlns="http://www.w3.org/2000/svg">
<path d="M23.9517 11.4275C23.8183 10.6599 23.4475 10.0327 22.9683 9.48509C22.2932 8.71281 21.4765 8.16519 20.6098 7.72054C20.2472 7.53332 19.8722 7.3695 19.4972 7.19633C19.5055 7.12144 19.5097 7.05591 19.518 6.9857C19.5805 6.20406 19.6472 5.42242 19.693 4.63609C19.7014 4.46291 19.7264 4.36462 19.8722 4.27101C20.6598 3.76552 21.039 2.67028 20.7723 1.7061C20.4097 0.400239 19.2222 -0.240989 18.0763 0.259824C18.0013 0.292588 17.8929 0.320671 17.8262 0.287907C17.1929 -0.0303667 16.5345 -0.0490886 15.8678 0.0960069C14.8469 0.320671 13.9593 0.858928 13.1259 1.51888C12.7676 1.79971 12.4301 2.10394 12.0842 2.40349C11.83 2.17883 11.5842 1.94948 11.3258 1.73886C10.4591 1.01807 9.54236 0.414281 8.48395 0.12877C6.71717 -0.34396 5.36291 0.49853 4.77954 2.43158C4.52535 3.26939 4.45868 4.13996 4.49619 5.01521C4.52952 5.74537 4.60453 6.47085 4.6587 7.20101C4.30867 7.36482 3.94198 7.54736 3.56696 7.71118C3.51695 7.73458 3.42528 7.68778 3.37528 7.64097C2.58773 6.85465 1.48348 6.83125 0.695932 7.58481C-0.07912 8.33369 -0.224963 9.59274 0.350075 10.571C0.391745 10.6459 0.395912 10.7722 0.379244 10.8612C0.329241 11.142 0.229234 11.4135 0.200065 11.6943C0.0958918 12.7193 0.458416 13.5665 1.04596 14.3154C1.68766 15.1298 2.48772 15.7008 3.35028 16.1642C3.78781 16.3982 4.23784 16.5995 4.67953 16.8148C4.62536 17.3202 4.55036 17.8257 4.51702 18.3406C4.44202 19.506 4.47118 20.6621 4.83788 21.7761C5.32541 23.2692 6.38798 24.0695 7.79224 23.9853C8.6423 23.9338 9.42152 23.6015 10.1424 23.1194C10.8174 22.6654 11.4592 22.1412 12.1342 21.6357C12.3384 21.8182 12.5801 22.0382 12.8301 22.2441C13.8176 23.0585 14.8594 23.7513 16.097 23.9525C16.9053 24.0836 17.6804 23.9619 18.3346 23.3534C18.4971 23.199 18.6346 23.1475 18.8471 23.1896C20.0431 23.4143 21.1973 22.2395 21.114 20.8774C21.0556 19.9179 20.6223 19.2439 19.8347 18.8601C19.7764 18.8321 19.693 18.7618 19.6889 18.7057C19.6264 18.0785 19.5722 17.4513 19.518 16.8194C19.9847 16.5901 20.4639 16.3748 20.9223 16.122C21.8932 15.5885 22.7766 14.9285 23.4225 13.9269C23.8933 13.1733 24.11 12.3449 23.9517 11.4275ZM18.7721 0.910414C19.493 0.87765 20.0972 1.4908 20.1181 2.27244C20.1389 3.08685 19.6055 3.74212 18.8972 3.77488C18.1763 3.80764 17.5971 3.1945 17.5721 2.36605C17.5429 1.61249 18.1013 0.938497 18.7721 0.910414ZM15.997 0.891692C16.4095 0.793401 16.822 0.77936 17.2595 0.924456C16.7803 1.70142 16.6678 2.52051 17.0554 3.36768C17.4471 4.21485 18.1013 4.59865 18.993 4.60333C18.9347 5.38965 18.8763 6.15725 18.8221 6.90145C17.9679 6.69551 17.172 6.49425 16.372 6.31171C16.0553 6.23682 15.7303 6.18066 15.4052 6.15257C15.1844 6.13385 15.0469 6.03088 14.9135 5.8343C14.2593 4.8514 13.5385 3.9387 12.7467 3.09153C12.7134 3.05408 12.6676 3.03068 12.5967 2.9792C13.6593 2.02905 14.7052 1.20529 15.997 0.891692ZM8.44228 17.0113C7.46722 16.768 6.50882 16.5292 5.49209 16.2765C5.80461 15.1579 6.10046 14.1094 6.40048 13.0423C7.08803 14.3809 7.75057 15.668 8.44228 17.0113ZM5.49209 7.7299C6.51299 7.47716 7.47139 7.23377 8.44228 6.99506C7.75474 8.32901 7.09219 9.62083 6.40048 10.9688C6.10463 9.90166 5.80877 8.84854 5.49209 7.7299ZM6.89635 12.153C6.86301 12.0687 6.86301 11.9377 6.89635 11.8534C7.55472 10.1872 8.37145 8.62388 9.29651 7.1308C9.41318 6.94358 9.54236 6.85933 9.7382 6.84997C10.6174 6.80316 11.4967 6.75168 12.2967 6.70955C13.1009 6.76572 13.8218 6.80784 14.5427 6.87337C14.6344 6.88273 14.7552 6.95762 14.8094 7.04187C15.7803 8.54899 16.6053 10.1544 17.2804 11.8534C17.3137 11.9377 17.3137 12.0687 17.2804 12.153C16.6053 13.852 15.7761 15.4527 14.8094 16.9645C14.7552 17.0488 14.6385 17.1237 14.5427 17.133C13.0593 17.3015 11.5758 17.3109 10.0924 17.1892C9.47985 17.1377 9.47985 17.1471 9.12983 16.5854C8.25894 15.1859 7.51722 13.7069 6.89635 12.153ZM17.7762 13.0423C18.0763 14.1001 18.3721 15.1532 18.6888 16.2718C17.6679 16.5292 16.7095 16.768 15.7344 17.0113C16.4262 15.6727 17.0887 14.3809 17.7762 13.0423ZM15.7344 6.99506C16.7012 7.23845 17.6637 7.47716 18.6888 7.7299C18.3763 8.84386 18.0763 9.90166 17.7804 10.9641C17.0887 9.62551 16.422 8.33369 15.7344 6.99506ZM12.1175 3.48001C12.7926 4.30846 13.4551 5.12286 14.1218 5.93727C14.1093 5.95599 14.0968 5.97004 14.0843 5.98876C13.426 5.96535 12.7634 5.92791 12.105 5.92791C11.4383 5.92791 10.7758 5.96535 10.0757 5.98876C10.6841 5.09478 11.355 4.28974 12.1175 3.48001ZM5.2254 4.13996C5.26707 3.49873 5.36708 2.87154 5.60459 2.28648C6.07546 1.12104 6.97969 0.629584 8.13393 0.887011C9.159 1.11636 10.0341 1.69206 10.8633 2.37073C11.0925 2.55795 11.3091 2.75921 11.5092 2.93707C10.8883 3.71403 10.2841 4.47228 9.68403 5.2352C9.49652 5.4739 9.33818 5.74069 9.15483 5.98408C9.10066 6.05428 9.01732 6.12917 8.94232 6.13853C7.76307 6.28831 6.60466 6.55042 5.46292 6.92954C5.44625 6.93422 5.42125 6.92954 5.38791 6.92954C5.24624 6.0028 5.1629 5.07606 5.2254 4.13996ZM2.03352 7.85628C2.7044 7.8516 3.27527 8.50687 3.28361 9.28851C3.29194 10.0514 2.71273 10.7254 2.04186 10.7301C1.33764 10.7348 0.745935 10.0982 0.737601 9.33531C0.733434 8.50687 1.30014 7.86096 2.03352 7.85628ZM4.83788 15.9816C4.57536 15.8646 4.30867 15.7476 4.04616 15.6165C3.20443 15.2 2.40438 14.7038 1.746 13.9643C1.24597 13.4027 0.883444 12.7614 0.912613 11.9283C0.920947 11.713 0.962616 11.5024 0.995952 11.259C1.83767 11.6943 2.62939 11.6662 3.32111 10.9969C4.01282 10.3276 4.16283 9.45701 3.89198 8.46006C4.20867 8.31497 4.52535 8.16987 4.80454 8.03882C5.1254 9.10129 5.39208 10.1591 5.76294 11.1701C5.97962 11.7598 6.01712 12.2513 5.75877 12.827C5.53792 13.3184 5.40875 13.8567 5.25874 14.3809C5.10456 14.9004 4.97955 15.4293 4.83788 15.9816ZM9.69237 22.4782C9.184 22.7871 8.65063 23.0351 8.07559 23.1334C6.7505 23.3628 5.86711 22.7309 5.45875 21.2846C5.22123 20.4468 5.17123 19.5856 5.22123 18.7197C5.2504 18.1768 5.31707 17.6385 5.37124 17.0675C5.64626 17.1471 5.87961 17.236 6.12129 17.2875C7.05469 17.4887 7.98809 17.6806 8.91732 17.8819C8.99649 17.9006 9.09649 17.9428 9.14233 18.0083C9.85905 19.0661 10.6299 20.063 11.4883 20.9804C11.5008 20.9944 11.5133 21.0178 11.5342 21.0506C10.9633 21.6029 10.3507 22.0803 9.69237 22.4782ZM12.0717 20.4749C11.3466 19.7213 10.6883 18.9023 10.0799 18.0364C11.4216 18.0364 12.7467 18.0364 14.0635 18.0364C13.9677 18.3266 12.4801 20.166 12.0717 20.4749ZM16.6887 23.1802C15.947 23.1943 15.2719 22.9228 14.6219 22.553C13.9302 22.1599 13.3009 21.6591 12.7092 21.1068C12.6884 21.0881 12.6759 21.06 12.6676 21.0553C13.1884 20.4141 13.7093 19.7916 14.2135 19.1503C14.4844 18.8086 14.7302 18.4389 14.9802 18.0738C15.0594 17.9568 15.1386 17.8819 15.2802 17.8632C16.4595 17.7041 17.6179 17.4513 18.8013 17.0535C18.8596 17.6104 18.918 18.1487 18.9763 18.6963C18.0763 18.8414 17.4512 19.3469 17.1929 20.3111C16.9345 21.2659 17.2054 22.071 17.8679 22.7449C17.5054 23.0445 17.1137 23.1756 16.6887 23.1802ZM20.3806 20.9944C20.3722 21.7714 19.8014 22.4033 19.118 22.3986C18.3888 22.3939 17.8221 21.7574 17.8304 20.9476C17.8387 20.152 18.4096 19.5294 19.1305 19.5341C19.8305 19.5341 20.3931 20.1894 20.3806 20.9944ZM22.7391 13.5805C22.3557 14.1375 21.8723 14.5681 21.3306 14.9145C20.9098 15.1859 20.4723 15.4246 20.0389 15.6634C19.818 15.785 19.5805 15.8693 19.3347 15.9816C19.2388 15.5885 19.1638 15.2093 19.0513 14.8443C18.7763 13.955 18.4846 13.0704 18.2054 12.1811C18.1763 12.0828 18.1638 11.947 18.1971 11.8534C18.6346 10.6412 19.0347 9.4102 19.2972 8.13243C19.3013 8.10434 19.318 8.07626 19.3388 8.02477C20.4556 8.50219 21.514 9.0498 22.3807 9.98122C22.7266 10.351 23.0099 10.7722 23.1641 11.2871C23.4266 12.1436 23.2141 12.8972 22.7391 13.5805Z" fill="#48494B"/>
<path d="M12.0969 14.9566C13.5595 14.9519 14.7221 13.6367 14.7179 11.9939C14.7138 10.3604 13.5387 9.04514 12.0803 9.04982C10.6177 9.04982 9.45092 10.3791 9.45509 12.036C9.45926 13.6461 10.651 14.9613 12.0969 14.9566ZM10.1926 11.9611C10.226 10.7863 11.0844 9.8455 12.1053 9.87358C13.197 9.90167 14.0221 10.8705 13.9929 12.0828C13.9637 13.2342 13.0678 14.175 12.0261 14.1422C11.001 14.1048 10.1593 13.1031 10.1926 11.9611Z" fill="#48494B"/>
</svg>
