<svg width="692" height="692" viewBox="0 0 692 692" fill="none" xmlns="http://www.w3.org/2000/svg">
<path d="M276 207.615V206.206C276 173.583 276 157.259 282.342 144.799C287.919 133.838 296.814 124.933 307.761 119.349C320.207 113 336.512 113 369.097 113H502.915C535.5 113 551.77 113 564.215 119.349C575.162 124.933 584.087 133.838 589.664 144.799C596 157.247 596 173.551 596 206.11V485.905C596 518.464 596 534.745 589.664 547.193C584.087 558.152 575.162 567.073 564.215 572.657C551.782 579 535.52 579 502.999 579H369.001C336.48 579 320.195 579 307.761 572.657C296.814 567.073 287.919 558.144 282.342 547.184C276 534.724 276 518.423 276 485.8V484.344" stroke="#FF2D35" stroke-width="40" stroke-linecap="round" stroke-linejoin="round"/>
<path d="M183.273 259L96 346.5L183.273 434M96 346.5H416" stroke="#FF2D35" stroke-width="40" stroke-linecap="round" stroke-linejoin="round"/>
</svg>
