<svg width="697" height="697" viewBox="0 0 697 697" fill="none" xmlns="http://www.w3.org/2000/svg">
<path d="M298.2 609.875C303.298 618.704 310.63 626.036 319.459 631.133C328.289 636.231 338.305 638.914 348.5 638.914C358.695 638.914 368.711 636.231 377.54 631.133C386.37 626.036 393.702 618.704 398.8 609.875" stroke="#FF6900" stroke-width="40" stroke-linecap="round" stroke-linejoin="round"/>
<path d="M94.7337 445.093C90.9398 449.251 88.4361 454.422 87.5272 459.977C86.6182 465.532 87.3432 471.232 89.6138 476.382C91.8845 481.533 95.6031 485.912 100.317 488.988C105.031 492.065 110.538 493.704 116.166 493.708H580.833C586.461 493.71 591.969 492.077 596.686 489.007C601.403 485.937 605.126 481.562 607.403 476.415C609.68 471.267 610.412 465.57 609.51 460.014C608.608 454.458 606.112 449.285 602.324 445.122C563.699 405.306 522.75 362.992 522.75 232.333C522.75 186.12 504.391 141.798 471.713 109.12C439.035 76.4419 394.714 58.0835 348.5 58.0835C302.286 58.0835 257.965 76.4419 225.286 109.12C192.608 141.798 174.25 186.12 174.25 232.333C174.25 362.992 133.272 405.306 94.7337 445.093Z" stroke="#FF6900" stroke-width="40" stroke-linecap="round" stroke-linejoin="round"/>
</svg>
